<?xml version="1.0" standalone="no"?>
<!DOCTYPE svg PUBLIC "-//W3C//DTD SVG 20010904//EN"
 "http://www.w3.org/TR/2001/REC-SVG-20010904/DTD/svg10.dtd">
<svg version="1.0" xmlns="http://www.w3.org/2000/svg"
 width="700.000000pt" height="700.000000pt" viewBox="0 0 700.000000 700.000000"
 preserveAspectRatio="xMidYMid meet">
<metadata>
Created by potrace 1.11, written by Peter Selinger 2001-2013
</metadata>
<g transform="translate(0.000000,700.000000) scale(0.100000,-0.100000)"
fill="#000000" stroke="none">
<path d="M1977 6144 c-54 -7 -123 -18 -155 -24 -31 -6 -68 -13 -82 -16 -70
-14 -246 -70 -344 -110 -293 -120 -514 -269 -746 -503 -214 -214 -355 -424
-474 -704 -40 -93 -96 -263 -111 -331 -2 -12 -11 -55 -20 -96 -31 -142 -43
-281 -40 -475 2 -104 6 -208 9 -230 54 -330 116 -529 238 -763 56 -110 148
-255 212 -337 17 -22 35 -46 41 -53 5 -7 59 -65 119 -128 161 -169 348 -314
543 -420 l71 -38 -95 -106 c-53 -58 -106 -114 -117 -125 -12 -12 -39 -41 -60
-65 -21 -25 -60 -68 -85 -95 -58 -63 -243 -265 -296 -324 -22 -24 -53 -59 -70
-76 -16 -18 -61 -68 -100 -110 -38 -43 -79 -87 -90 -99 -11 -12 -60 -67 -110
-121 -50 -55 -116 -126 -147 -159 -31 -34 -55 -62 -53 -64 3 -3 83 33 315 141
81 37 160 74 255 117 33 15 89 41 125 58 36 16 184 85 330 152 146 67 297 137
335 155 39 18 291 134 560 258 l490 226 1290 4 c1260 4 1293 4 1400 25 61 11
121 24 135 27 14 3 36 8 50 11 104 21 302 93 440 161 123 60 329 187 386 238
7 5 29 24 50 40 68 53 280 268 342 347 241 308 398 671 458 1060 24 154 24
489 1 645 -99 671 -488 1254 -1067 1603 -253 153 -558 262 -825 296 -27 3 -59
9 -70 12 -11 4 -677 7 -1480 8 -1173 1 -1479 -1 -1558 -12z m1037 -1128 c69
-19 138 -53 216 -104 61 -40 201 -177 240 -235 14 -20 28 -37 31 -37 4 0 19
19 34 43 16 23 58 72 94 108 105 104 211 169 356 216 78 26 103 29 182 27 166
-5 284 -55 398 -169 73 -73 105 -121 142 -215 36 -90 45 -140 48 -251 5 -165
-29 -311 -113 -483 -184 -379 -628 -821 -1095 -1090 l-48 -28 -40 26 c-21 14
-41 26 -44 26 -19 0 -309 206 -410 291 -101 85 -140 122 -225 208 -293 298
-441 538 -519 838 -17 62 -23 235 -11 309 15 91 43 169 97 268 28 52 155 170
220 204 129 68 305 87 447 48z"/>
</g>
</svg>
